<?xml version="1.0" standalone="no"?>
<!DOCTYPE svg PUBLIC "-//W3C//DTD SVG 20010904//EN"
 "http://www.w3.org/TR/2001/REC-SVG-20010904/DTD/svg10.dtd">
<svg version="1.0" xmlns="http://www.w3.org/2000/svg"
 width="512.000000pt" height="512.000000pt" viewBox="0 0 512.000000 512.000000"
 preserveAspectRatio="xMidYMid meet">
<metadata>
Created by potrace 1.11, written by Peter Selinger 2001-2013
</metadata>
<g transform="translate(0.000000,512.000000) scale(0.100000,-0.100000)"
fill="#000000" stroke="none">
<path d="M0 2560 l0 -2560 2560 0 2560 0 0 2560 0 2560 -2560 0 -2560 0 0
-2560z m928 3 l2 -773 -135 0 -135 0 0 775 0 776 133 -3 132 -3 3 -772z m1582
652 l0 -125 -415 0 c-408 0 -415 0 -415 -20 0 -11 -1 -102 -1 -202 l0 -183
321 -3 321 -2 -3 -123 -3 -122 -318 -5 -318 -5 -2 -315 -2 -315 -132 -3 -133
-3 0 776 0 775 550 0 550 0 0 -125z m550 -650 l0 -776 -132 3 -133 3 -3 760
c-1 418 0 766 3 773 3 9 40 12 135 12 l130 0 0 -775z m1530 650 l0 -125 -395
0 -395 0 0 -525 0 -525 395 0 395 0 0 -125 0 -125 -527 2 -528 3 -3 760 c-1
418 0 766 3 773 3 9 119 12 530 12 l525 0 0 -125z"/>
</g>
</svg>
